<?xml version="1.0" standalone="no"?>
<!DOCTYPE svg PUBLIC "-//W3C//DTD SVG 20010904//EN"
 "http://www.w3.org/TR/2001/REC-SVG-20010904/DTD/svg10.dtd">
<svg version="1.0" xmlns="http://www.w3.org/2000/svg"
 width="512.000000pt" height="512.000000pt" viewBox="0 0 512.000000 512.000000"
 preserveAspectRatio="xMidYMid meet">
<metadata>
Created by potrace 1.14, written by Peter Selinger 2001-2017
</metadata>
<g transform="translate(0.000000,512.000000) scale(0.100000,-0.100000)"
fill="#000000" stroke="none">
<path d="M2360 4930 c-102 -38 -185 -69 -185 -69 0 0 -13 -4 -28 -10 -16 -6
-31 -11 -33 -11 -3 0 -51 -17 -107 -39 -56 -21 -203 -76 -327 -121 -226 -82
-452 -166 -480 -177 -8 -3 -19 -7 -25 -8 -5 -2 -41 -15 -80 -30 -38 -15 -74
-28 -80 -29 -5 -2 -22 -8 -36 -14 -15 -6 -64 -24 -110 -41 -46 -16 -115 -42
-154 -56 -71 -27 -161 -59 -250 -90 -27 -10 -54 -22 -59 -26 -6 -5 -20 -9 -31
-9 -12 0 -25 -3 -29 -7 -4 -5 -11 -8 -14 -9 -4 0 -14 -4 -22 -7 -66 -28 -149
-54 -154 -50 -3 4 -6 1 -6 -5 0 -7 -7 -12 -15 -12 -8 0 -16 -3 -16 -7 -1 -5
-3 -691 -4 -1525 l-1 -1518 22 -19 c12 -10 84 -42 160 -71 77 -28 155 -58 174
-65 54 -21 292 -109 420 -155 63 -23 131 -48 150 -55 19 -8 80 -30 135 -50 55
-20 109 -40 120 -45 11 -5 121 -45 245 -90 124 -45 234 -85 245 -90 11 -4 47
-18 80 -30 33 -12 69 -25 80 -30 11 -4 52 -19 90 -33 39 -14 157 -58 262 -97
106 -39 197 -69 202 -66 5 4 11 2 13 -3 2 -7 228 68 293 98 17 8 263 98 565
207 52 19 102 37 110 41 8 3 20 7 25 9 6 1 48 16 95 34 47 18 110 41 140 52
30 12 69 27 87 35 17 7 45 16 62 19 17 4 31 11 31 17 0 6 3 8 6 5 3 -3 33 5
67 17 34 13 132 49 217 79 85 31 164 61 175 65 29 13 104 41 340 126 248 89
261 95 257 121 -4 27 -5 2977 -1 2989 9 31 -14 51 -83 75 -40 13 -77 26 -83
30 -5 3 -35 14 -65 24 -30 11 -66 24 -80 29 -14 5 -65 24 -115 43 -49 18 -128
47 -175 64 -47 18 -99 36 -117 41 -18 5 -45 16 -60 24 -15 8 -43 18 -60 21
-18 3 -33 10 -33 15 0 5 -7 9 -15 9 -9 0 -50 13 -93 29 -42 16 -122 46 -177
66 -55 19 -116 42 -135 50 -19 8 -111 42 -205 76 -93 33 -179 65 -190 70 -11
5 -47 18 -80 29 -33 12 -80 30 -105 40 -25 10 -97 37 -160 60 -63 23 -124 45
-135 50 -59 26 -226 80 -246 80 -13 0 -107 -32 -209 -70z"/>
</g>
</svg>
